<?xml version="1.0" standalone="no"?>
<!DOCTYPE svg PUBLIC "-//W3C//DTD SVG 20010904//EN"
 "http://www.w3.org/TR/2001/REC-SVG-20010904/DTD/svg10.dtd">
<svg version="1.0" xmlns="http://www.w3.org/2000/svg"
 width="850.000000pt" height="764.000000pt" viewBox="0 0 850.000000 764.000000"
 preserveAspectRatio="xMidYMid meet">

<g transform="translate(0.000000,764.000000) scale(0.100000,-0.100000)"
fill="#000000" stroke="none">
<path d="M4330 7268 c-94 -70 -448 -307 -635 -425 -951 -597 -1822 -991 -2517
-1138 -59 -12 -114 -30 -123 -38 -8 -9 -15 -29 -15 -46 0 -61 126 -102 313
-102 298 0 966 153 1362 311 44 18 103 41 130 52 108 42 397 191 520 268 457
285 783 633 983 1048 30 62 53 114 51 116 -2 2 -33 -19 -69 -46z"/>
<path d="M4999 7232 c-58 -38 -81 -78 -90 -160 -14 -111 -13 -412 0 -517 57
-434 237 -778 535 -1019 117 -95 197 -146 323 -207 348 -169 743 -250 1212
-250 390 1 545 42 545 146 0 50 -30 75 -90 75 -79 0 -345 31 -520 60 -404 68
-743 179 -1025 337 -313 175 -562 432 -692 713 -98 213 -132 375 -132 635 0
215 -5 228 -66 187z"/>
<path d="M740 4780 c-18 -5 -40 -16 -47 -26 -16 -22 -17 -54 -2 -54 13 0 167
-100 214 -139 17 -14 75 -70 130 -126 389 -390 512 -943 354 -1592 -80 -328
-247 -715 -470 -1089 -44 -73 -79 -141 -79 -153 0 -12 9 -30 20 -41 76 -76
207 18 414 294 380 507 581 1053 562 1526 -12 305 -100 560 -279 810 -130 180
-366 388 -602 529 -104 63 -151 76 -215 61z"/>
<path d="M2320 3935 l0 -535 100 0 101 0 -1 218 -2 217 235 3 234 2 0 84 c1
81 0 85 -24 91 -13 3 -116 5 -228 5 -113 -1 -208 1 -212 3 -4 3 -7 64 -5 136
l3 131 243 0 244 0 6 34 c4 19 6 59 5 90 l-2 56 -349 0 -348 0 0 -535z"/>
<path d="M3660 3935 l0 -535 100 0 100 0 0 220 0 220 235 0 236 0 -3 88 -3 87
-233 0 -232 0 0 137 0 138 248 2 247 3 3 88 3 87 -351 0 -350 0 0 -535z"/>
<path d="M4530 3935 l0 -535 246 0 c269 0 317 7 429 60 172 83 280 245 292
439 14 227 -86 416 -267 504 -116 57 -179 67 -457 67 l-243 0 0 -535z m519
339 c143 -41 215 -120 241 -263 24 -131 -12 -253 -96 -330 -86 -79 -213 -115
-382 -109 l-83 3 -2 358 c-1 196 1 358 5 360 28 9 270 -5 317 -19z"/>
<path d="M5554 4462 c4 -6 219 -552 376 -954 l42 -108 86 0 87 0 32 83 c17 45
113 283 212 530 100 246 181 449 181 452 0 3 -46 5 -103 5 l-102 0 -42 -112
c-23 -62 -90 -243 -149 -401 -58 -158 -108 -286 -110 -285 -3 3 -175 481 -257
711 l-30 87 -114 0 c-63 0 -112 -4 -109 -8z"/>
<path d="M3120 3770 l0 -80 185 0 185 0 5 23 c4 13 5 48 3 78 l-3 54 -187 3
-188 2 0 -80z"/>
<path d="M3400 3192 c-48 -26 -72 -71 -72 -132 0 -90 59 -144 149 -137 61 4
101 31 82 54 -10 11 -15 11 -30 -3 -9 -8 -35 -18 -57 -21 -33 -4 -44 -1 -72
24 -29 26 -34 36 -34 81 -1 40 4 56 23 76 37 39 73 48 115 26 29 -14 38 -15
46 -4 9 10 5 17 -14 29 -40 26 -96 29 -136 7z"/>
<path d="M2320 3059 c0 -128 2 -140 18 -137 14 3 18 16 20 66 l3 62 59 0 c47
0 60 3 60 15 0 12 -13 15 -60 15 l-60 0 0 45 0 45 65 0 c51 0 65 3 65 15 0 12
-16 15 -85 15 l-85 0 0 -141z"/>
<path d="M2538 3183 c-2 -10 -4 -72 -4 -138 1 -106 3 -120 19 -123 15 -3 17 5
17 62 0 90 21 90 78 1 23 -36 48 -65 57 -65 21 0 19 8 -19 71 l-34 57 24 11
c14 6 29 23 35 38 24 63 -20 103 -114 103 -44 0 -56 -4 -59 -17z m120 -29 c44
-30 15 -74 -49 -74 l-39 0 0 45 c0 44 1 45 33 45 18 0 43 -7 55 -16z"/>
<path d="M2850 3191 c0 -6 -25 -66 -55 -135 -30 -68 -55 -126 -55 -129 0 -3 8
-4 18 -3 9 1 23 17 31 34 14 31 16 32 83 32 l68 0 14 -35 c14 -34 46 -49 46
-22 0 7 -24 69 -54 138 -42 98 -58 125 -75 127 -11 2 -21 -1 -21 -7z m66 -158
c-6 -7 -68 -11 -82 -6 -8 3 -4 24 14 64 l26 60 23 -57 c13 -31 22 -58 19 -61z"/>
<path d="M3040 3059 c0 -128 2 -140 18 -137 15 3 17 16 18 101 0 53 3 99 6
102 2 3 38 -42 79 -100 104 -147 116 -142 116 48 0 117 -1 127 -18 127 -16 0
-19 -11 -21 -107 l-3 -108 -75 107 c-57 82 -80 108 -97 108 -23 0 -23 -1 -23
-141z"/>
<path d="M3612 3063 l3 -138 88 -2 c80 -1 87 0 87 18 0 17 -8 19 -70 19 l-70
0 0 45 0 45 59 0 c33 0 62 4 65 9 12 18 -24 33 -73 29 -53 -3 -61 5 -53 60 3
20 8 22 73 22 55 0 69 3 69 15 0 12 -17 15 -90 15 l-91 0 3 -137z"/>
<path d="M3970 3060 c0 -118 2 -140 15 -140 12 0 15 14 15 65 l0 65 65 0 c51
0 65 3 65 15 0 12 -14 15 -65 15 l-65 0 0 45 0 45 70 0 c56 0 70 3 70 15 0 12
-16 15 -85 15 l-85 0 0 -140z"/>
<path d="M4182 3063 l3 -138 78 -2 c70 -2 77 0 77 18 0 17 -7 19 -60 19 l-60
0 0 120 c0 114 -1 120 -20 120 -20 0 -20 -5 -18 -137z"/>
<path d="M4373 3063 l2 -138 90 0 c73 0 90 3 90 15 0 12 -16 16 -72 18 l-73 3
0 44 0 45 66 0 c57 0 65 2 62 18 -3 14 -14 17 -66 17 l-62 0 0 43 0 42 70 0
c56 0 70 3 70 15 0 12 -17 15 -89 15 l-89 0 1 -137z"/>
<path d="M4602 3084 c3 -113 4 -116 31 -140 20 -17 40 -24 68 -24 87 0 109 37
109 180 0 93 -1 100 -20 100 -19 0 -20 -7 -20 -105 0 -92 -3 -108 -20 -125
-11 -11 -31 -20 -45 -20 -14 0 -34 9 -45 20 -19 19 -23 57 -23 213 0 10 -7 17
-19 17 -19 0 -20 -6 -16 -116z"/>
<path d="M4840 3193 c0 -5 22 -66 49 -138 38 -99 54 -130 68 -130 13 0 30 32
70 135 29 74 53 136 53 137 0 2 -8 3 -18 3 -14 0 -28 -24 -57 -101 -21 -55
-42 -102 -46 -104 -3 -3 -24 43 -45 100 -29 80 -42 105 -56 105 -10 0 -18 -3
-18 -7z"/>
<path d="M5110 3062 l0 -139 90 -1 c84 -2 90 -1 90 18 0 18 -7 20 -75 20 l-75
0 0 45 0 45 66 0 c57 0 65 2 62 18 -3 17 -10 19 -86 21 l-43 1 3 38 3 37 68 3
c51 2 67 6 67 17 0 12 -17 15 -85 15 l-85 0 0 -138z"/>
<path d="M5440 3061 l0 -140 75 4 c84 3 115 18 145 68 39 64 15 157 -50 189
-23 12 -58 18 -102 18 l-68 0 0 -139z m145 95 c41 -17 55 -42 55 -96 0 -33 -6
-48 -29 -71 -26 -25 -37 -29 -85 -29 l-56 0 0 98 c0 54 3 102 7 105 11 12 72
8 108 -7z"/>
<path d="M5730 3061 l0 -139 90 1 c79 1 90 3 90 19 0 16 -10 18 -75 18 l-75 0
0 45 0 45 66 0 c57 0 65 2 62 18 -3 14 -14 17 -63 18 l-60 0 -3 42 -3 42 70 0
c56 0 71 3 71 15 0 12 -16 15 -85 15 l-85 0 0 -139z"/>
<path d="M6033 3183 c8 -28 96 -255 100 -260 16 -15 41 25 82 130 26 67 49
128 52 135 3 7 -3 12 -14 12 -16 0 -28 -21 -59 -105 -21 -58 -41 -105 -44
-105 -3 0 -23 47 -44 105 -31 85 -43 105 -59 105 -14 0 -18 -5 -14 -17z"/>
<path d="M6300 3060 c0 -107 3 -139 13 -137 22 4 24 17 25 148 1 122 0 129
-18 129 -19 0 -20 -8 -20 -140z"/>
<path d="M6402 3063 l3 -138 88 -3 c82 -3 87 -2 87 17 0 19 -6 21 -70 21 -66
0 -70 1 -71 23 -1 12 -3 32 -4 45 -2 21 1 22 61 22 58 0 64 2 64 21 0 19 -5
20 -60 17 l-60 -4 0 43 0 43 65 0 c51 0 65 3 65 15 0 12 -16 15 -85 15 l-86 0
3 -137z"/>
<path d="M3820 3015 c0 -11 12 -15 50 -15 38 0 50 4 50 15 0 11 -12 15 -50 15
-38 0 -50 -4 -50 -15z"/>
<path d="M5805 2289 c-971 -74 -1967 -507 -2895 -1258 -58 -47 -107 -88 -110
-91 -3 -3 -50 -43 -105 -90 -55 -47 -102 -87 -105 -90 -3 -3 -39 -37 -80 -74
-186 -171 -231 -219 -228 -246 7 -56 100 -17 329 137 1034 696 1752 1067 2469
1276 354 104 614 137 1075 137 624 0 1035 -58 1300 -185 186 -88 392 -80 370
15 -16 67 -87 114 -318 210 -507 210 -1119 303 -1702 259z"/>
</g>
</svg>
