<?xml version="1.0" standalone="no"?>
<!DOCTYPE svg PUBLIC "-//W3C//DTD SVG 20010904//EN"
 "http://www.w3.org/TR/2001/REC-SVG-20010904/DTD/svg10.dtd">
<svg version="1.0" xmlns="http://www.w3.org/2000/svg"
 width="225.000000pt" height="225.000000pt" viewBox="0 0 225.000000 225.000000"
 preserveAspectRatio="xMidYMid meet">

<g transform="translate(0.000000,225.000000) scale(0.100000,-0.100000)"
fill="#000000" stroke="none">
<path d="M855 2096 c-198 -38 -360 -157 -445 -325 -78 -156 -66 -349 31 -497
121 -186 326 -283 573 -271 149 7 245 39 362 123 61 43 144 128 144 146 0 6 9
21 20 35 58 74 77 265 39 389 -30 96 -62 148 -144 229 -77 76 -184 136 -285
161 -85 21 -216 25 -295 10z m305 -76 c36 -13 43 -18 22 -14 -83 15 -141 19
-187 13 -27 -3 -53 -2 -56 3 -3 4 -45 1 -94 -7 -48 -9 -90 -14 -92 -12 -4 4
96 32 147 41 55 10 206 -4 260 -24z m-65 -39 c39 -10 95 -30 126 -44 49 -24
56 -31 57 -57 0 -17 -3 -30 -7 -30 -8 0 -38 -80 -34 -91 1 -4 -7 -15 -17 -24
-11 -10 -20 -22 -20 -27 0 -19 -77 -91 -120 -111 -56 -26 -161 -29 -205 -5
-60 32 -130 111 -169 191 -29 60 -35 81 -26 91 8 11 8 15 -2 19 -20 7 16 32
90 62 114 46 219 55 327 26z m145 -841 c13 -20 0 -42 -21 -37 -12 3 -19 0 -19
-8 0 -13 -57 -35 -130 -51 l-35 -8 30 -7 c23 -5 16 -7 -30 -8 -42 0 -56 2 -45
9 12 8 10 10 -8 10 -13 0 -20 -4 -17 -10 3 -5 -3 -10 -14 -10 -11 0 -23 5 -26
10 -8 13 -72 40 -96 40 -10 0 -22 6 -26 14 -4 7 -26 23 -47 34 -26 14 -34 23
-25 26 21 8 124 11 323 10 134 -1 180 -5 186 -14z"/>
<path d="M229 1628 c-8 -30 -14 -106 -14 -173 0 -132 19 -213 76 -329 123
-248 460 -407 778 -367 46 6 128 26 181 44 87 30 99 32 109 18 11 -14 11 -14
7 1 -7 25 1 22 15 -3 8 -17 8 -20 -1 -14 -8 5 -10 2 -6 -11 13 -42 -8 -75 -67
-106 -54 -28 -75 -58 -42 -58 26 0 95 -40 102 -58 22 -58 116 -173 262 -322
35 -36 75 -82 89 -102 27 -42 35 -47 25 -21 -3 10 8 -1 26 -23 33 -44 53 -54
112 -54 41 0 115 44 135 81 30 55 20 79 -109 259 -67 95 -138 195 -158 223
-19 29 -63 90 -97 137 -34 47 -62 90 -62 97 0 14 -52 27 -105 24 -35 -1 -44 3
-68 34 -24 30 -26 36 -12 41 8 4 29 1 45 -6 28 -11 33 -10 67 20 85 74 170
213 202 330 22 77 27 206 12 285 -6 33 -8 23 -13 -60 -7 -123 -28 -198 -82
-288 -93 -155 -242 -267 -436 -328 -65 -20 -95 -24 -225 -23 -161 0 -205 9
-340 69 -267 119 -438 407 -396 664 13 80 8 90 -10 19z m1379 -844 c12 -8 27
-24 33 -35 10 -19 8 -20 -33 -14 -24 4 -56 2 -72 -5 -25 -9 -27 -9 -17 4 9 11
9 20 2 34 -6 11 -7 22 -4 26 12 12 69 6 91 -10z m-146 -146 c-2 -10 -6 -18 -7
-18 -1 0 -5 8 -7 18 -3 11 0 19 7 19 7 0 10 -8 7 -19z"/>
<path d="M1711 1634 c0 -11 3 -14 6 -6 3 7 2 16 -1 19 -3 4 -6 -2 -5 -13z"/>
</g>
</svg>
